<?xml version="1.0" encoding="utf-8"?>
<!-- Generator: Adobe Illustrator 27.9.0, SVG Export Plug-In . SVG Version: 6.00 Build 0)  -->
<svg version="1.0" id="Layer_1" xmlns="http://www.w3.org/2000/svg" xmlns:xlink="http://www.w3.org/1999/xlink" x="0px" y="0px"
	 viewBox="0 0 3440 960" style="enable-background:new 0 0 3440 960;" xml:space="preserve">
<style type="text/css">
	.st0{fill:#224086;}
	.st1{fill:#FEE700;}
	.st2{filter:url(#Adobe_OpacityMaskFilter);}
	.st3{fill:url(#SVGID_00000163063481712438298630000017398618126949696406_);}
	.st4{mask:url(#SVGID_1_);}
	.st5{clip-path:url(#SVGID_00000165211858845054110970000015476566533037560229_);}
	
		.st6{clip-path:url(#SVGID_00000163042722253065094020000017258765195273973896_);fill:url(#SVGID_00000156586184450778504000000011510797460776656816_);}
</style>
<g>
	<path class="st0" d="M272.72,210.28c-8.73,0-14.74-3.43-17.86-10.18c-2.88-6.23-4.01-13.63-3.38-22
		c0.46-8.15,1.86-17.71,4.14-28.38l15.82-78.19h13.26l-15.84,78.75c-4.4,21.02-3.79,29.65-2.51,33.18c1.53,4.6,4.65,6.81,9.56,6.81
		c5.2,0,9.44-2.35,13.36-7.39c3.88-5.17,7.58-16.43,10.98-33.44l15.84-77.92h13.42l-16,79.05c-3.47,16.56-6.85,28.28-10.32,35.85
		c-3.67,7.96-7.94,13.78-13.07,17.79C284.9,208.24,279.06,210.28,272.72,210.28"/>
	<path class="st0" d="M450.64,208h-14.1l0.8-37.39c0.14-5.91-0.64-10.62-2.39-14.4c-2.07-4.16-4.37-4.7-6.13-4.7h-15.13L402.3,208
		h-13.42l27.58-136.48h32.09c5.58,0,10.16,1.13,13.6,3.38c3.55,2.43,5.74,7.12,6.57,13.97c0.92,6.45,0.5,13.95-1.25,22.24
		c-1.87,9.52-4.81,17.27-8.96,23.64c-3.66,5.57-7.66,9.41-12.17,11.68c3.34,4.23,4.91,11.97,4.77,23.49L450.64,208z M417.73,131.5
		h17.62c5.12,0,9.09-1.5,11.8-4.48c2.88-3.01,5.2-8.64,6.94-16.78c1.71-8.43,1.32-14.25-1.15-17.27c-1.46-1.78-3.74-2.66-6.96-2.66
		h-19.84L417.73,131.5z"/>
	<polygon class="st0" points="597.29,208 541.8,208 569.53,71.52 623.18,71.52 619.14,91.53 578.75,91.53 571.4,127.71 
		609.22,127.71 605.16,147.56 567.51,147.56 559.26,188.14 601.15,188.14 	"/>
	<path class="st0" d="M717.48,210.28c-10.63,0-17.73-4.7-21.12-13.99c-3.2-8.83-3.6-20.03-1.15-33.3l0.32-1.73h13.02l-0.37,2.44
		c-1.44,9.33-0.91,16.22,1.56,20.49c2.51,4.08,5.94,6.08,10.48,6.08c4.62,0,8.43-1.72,12-5.42c3.67-3.82,6.05-8.7,7.5-15.39
		c1.27-6.78,0.85-11.45-1.28-14.21c-1.68-2.08-5.47-5.37-13.77-9.08c-7.57-3.38-12.7-8.26-15.22-14.49
		c-2.45-6.22-2.64-14.11-0.57-24.15c2.22-11.07,6.41-20.24,12.47-27.22c6.19-7.33,13.37-11.06,21.34-11.06
		c8.54,0,14.75,3.93,18.46,11.68c3.5,7.17,4.11,17.16,1.85,30.57l-0.3,1.76h-13.19l0.36-2.43c1.36-9.02,0.62-15.27-2.23-18.58
		c-1.73-2.01-4.29-2.99-7.83-2.99c-4.46,0-8.13,1.57-11.24,4.82c-3.25,3.39-5.47,7.95-6.59,13.53c-0.98,5.2-0.83,8.78,0.48,10.94
		c1.03,1.67,3.59,4.28,10.01,7.24c5.7,2.68,10.17,5.33,13.35,7.86c3.39,2.88,5.92,7.21,7.54,12.91c1.61,5.63,1.47,13.17-0.42,22.41
		c-2.52,11.87-6.89,21.45-13.34,29.31C733.2,206.13,725.55,210.28,717.48,210.28"/>
	<polygon class="st0" points="144.53,208.21 89.04,208.21 116.77,71.73 170.42,71.73 166.39,91.73 125.99,91.73 118.65,127.91 
		156.46,127.91 152.41,147.77 114.75,147.77 106.5,188.34 148.38,188.34 	"/>
	<path class="st0" d="M200.59,635.32c5.01-3.95,6.99-7.59,14.12-0.91l76.69,82.61c4.25,4.55,3.18,4.25,0.91,7.44
		c-6.83,6.98-10.47,9.57-16.7,14.42c-0.91,0.77-5.47,4.71-9.42,0.91l-77.29-83.97c-6.37-6.23-5.31-4.71-1.97-8.35L200.59,635.32z"/>
	<path class="st0" d="M94.9,242.18h631.39l-135.3,662.37H420.77c128.16-111.45,120.41-265.88,41.76-350.77L263.45,337.7
		c-22.62-22.93-22.77-38.87-58.46-4.4l-12.15,14.89c-43.43,64.84-10.47,116.17,5.32,137.88l92.93,100.22
		c33.1,30.83,36.59,89.89,10.78,124.67l-79.1-83.98c-10.02-10.93-15.64-10.93-27.64-2.88l-16.09,15.03
		c-2.28,1.83-3.19,2.89-5.32,0.61L53.14,508.53c-5.01-6.53-10.17-6.38-6.22-32.8L94.9,242.18z"/>
	<path class="st1" d="M64.99,540.57L204.84,690.9l-0.15,1.21L53.6,610.27C31.88,595.23,34.01,551.66,64.99,540.57"/>
	<path class="st1" d="M62.41,629.7l168.09,88.98L262.24,753c0,16.71-16.25,26.27-33.86,20.35L28.7,701.68
		C-13.52,683.46,6.98,609.66,62.41,629.7"/>
	<path class="st1" d="M75.62,732.36l171.74,61.05c19.89,10.63,16.85,49.35-15.18,47.98L44.79,807.37
		C-4.25,787.93,20.19,712.31,75.62,732.36"/>
	<path class="st1" d="M84.88,828.32l161.87,27.79c24.45,8.19,15.04,37.5-2.88,37.35l-142.89-3.95
		C63.93,881.32,73.34,833.04,84.88,828.32"/>
	<path class="st1" d="M202.71,356.68l72.74,78.66c26.27,30.53,31.88,8.5,53.91-6.98l128.31,137.87
		c160.36,190.72-96.73,502.32-345.15,335.9l121.63,3.03c35.08,0.91,53-31.88,22.47-58c16.55-17.61,25.96-37.05-0.91-63.32
		c8.5-7.59,13.21-8.96,19.58-28.85c65.45-41.61,71.53-127.1,32.66-169.02l-97.19-104.31C178.11,444.9,177.21,388.41,202.71,356.68"
		/>
	<path class="st1" d="M226.4,330.71c8.2-4.86,8.35-7.9,15.03,1.52l76.53,83.36c4.26,4.55,3.19,2.88-0.61,7.14
		c-6.83,6.98-8.2,8.2-14.43,13.06c-1.36,1.37-6.23,4.26-10.17,0.46l-77.44-84.13c-6.23-6.37-5.77-5.31-2.58-9.11
		C216.53,338.92,219.72,335.27,226.4,330.71"/>
	<polygon class="st1" points="635.79,385.23 645.2,378.39 633.51,378.39 629.87,367.31 626.37,378.39 614.68,378.39 624.09,385.23 
		620.45,396.31 629.87,389.48 639.28,396.31 	"/>
	<polygon class="st1" points="599.04,350 608.46,343.17 596.76,343.17 593.27,332.08 589.62,343.17 577.93,343.17 587.35,350 
		583.71,361.09 593.27,354.25 602.69,361.09 	"/>
	<polygon class="st1" points="551.66,337.55 561.08,330.71 549.38,330.71 545.89,319.63 542.25,330.71 530.56,330.71 539.97,337.55 
		536.48,348.63 545.89,341.8 555.31,348.63 	"/>
	<polygon class="st1" points="501.86,350 511.27,343.17 499.58,343.17 495.94,332.08 492.44,343.17 480.75,343.17 490.16,350 
		486.52,361.09 495.94,354.25 505.35,361.09 	"/>
	<polygon class="st1" points="466.17,386.9 475.59,380.07 463.89,380.07 460.4,368.98 456.76,380.07 445.06,380.07 454.48,386.9 
		450.99,397.98 460.4,391.15 469.82,397.98 	"/>
	<polygon class="st1" points="454.78,435.34 464.2,428.51 452.65,428.51 449.01,417.42 445.37,428.51 433.67,428.51 443.09,435.34 
		439.6,446.42 449.01,439.59 458.43,446.42 	"/>
	<polygon class="st1" points="466.48,484.54 476.04,477.56 464.35,477.56 460.71,466.47 457.06,477.56 445.52,477.71 454.93,484.54 
		451.29,495.62 460.71,488.79 470.12,495.62 	"/>
	<polygon class="st1" points="501.86,519.16 511.27,512.32 499.58,512.32 495.94,501.39 492.44,512.32 480.75,512.32 490.16,519.16 
		486.52,530.24 495.94,523.42 505.35,530.24 	"/>
	<polygon class="st1" points="551.66,532.22 561.08,525.39 549.38,525.39 545.89,514.3 542.25,525.39 530.56,525.39 539.97,532.22 
		536.48,543.3 545.89,536.47 555.31,543.3 	"/>
	<polygon class="st1" points="600.26,519.01 609.67,512.18 597.98,512.18 594.33,501.24 590.84,512.18 579.15,512.18 588.56,519.01 
		584.92,530.1 594.33,523.26 603.75,530.1 	"/>
	<polygon class="st1" points="635.48,484.23 644.9,477.25 633.21,477.25 629.72,466.16 626.07,477.25 614.37,477.25 623.79,484.23 
		620.3,495.32 629.72,488.33 639.13,495.32 	"/>
	<polygon class="st1" points="648.54,434.73 657.96,427.9 646.27,427.9 642.62,416.81 639.13,427.9 627.43,427.9 636.85,434.73 
		633.2,445.82 642.62,438.98 652.04,445.82 	"/>
	<defs>
		<filter id="Adobe_OpacityMaskFilter" filterUnits="userSpaceOnUse" x="595.31" y="6.43" width="2838.5" height="906.87">
			<feColorMatrix  type="matrix" values="1 0 0 0 0  0 1 0 0 0  0 0 1 0 0  0 0 0 1 0"/>
		</filter>
	</defs>
	<mask maskUnits="userSpaceOnUse" x="595.31" y="6.43" width="2838.5" height="906.87" id="SVGID_1_">
		<g class="st2">
			
				<linearGradient id="SVGID_00000143610909969000373630000010148052120814194340_" gradientUnits="userSpaceOnUse" x1="1301.1726" y1="883.3632" x2="1309.965" y2="883.3632" gradientTransform="matrix(292.4361 1.5312 1.5312 -292.4361 -381083 257487.25)">
				<stop  offset="0" style="stop-color:#FFFFFF"/>
				<stop  offset="1" style="stop-color:#000000"/>
			</linearGradient>
			<polygon style="fill:url(#SVGID_00000143610909969000373630000010148052120814194340_);" points="-2270.76,-1499.94 
				5158.67,-1461.04 5131.06,3811.48 -2298.37,3772.58 			"/>
		</g>
	</mask>
	<g class="st4">
		<g>
			<defs>
				<rect id="SVGID_00000007390887773466804500000014734735558495273880_" x="595.31" y="6.43" width="2838.5" height="906.87"/>
			</defs>
			<clipPath id="SVGID_00000090281161048874636940000007360959851540859816_">
				<use xlink:href="#SVGID_00000007390887773466804500000014734735558495273880_"  style="overflow:visible;"/>
			</clipPath>
			<g style="clip-path:url(#SVGID_00000090281161048874636940000007360959851540859816_);">
				<defs>
					<polygon id="SVGID_00000076599881161653272890000004297047811600935848_" points="3354.68,904.51 3354.68,67.98 845.54,67.98 
						674.44,904.51 					"/>
				</defs>
				<clipPath id="SVGID_00000149352501863380434030000006322201844042244500_">
					<use xlink:href="#SVGID_00000076599881161653272890000004297047811600935848_"  style="overflow:visible;"/>
				</clipPath>
				
					<linearGradient id="SVGID_00000174574065062212140880000015320280106248439962_" gradientUnits="userSpaceOnUse" x1="1300.9785" y1="885.8531" x2="1309.7709" y2="885.8531" gradientTransform="matrix(304.836 0 0 -304.836 -395910.6562 270526.1875)">
					<stop  offset="0" style="stop-color:#FEE700"/>
					<stop  offset="0.9982" style="stop-color:#FFFFFF"/>
					<stop  offset="1" style="stop-color:#FFFFFF"/>
				</linearGradient>
				
					<rect x="674.44" y="67.98" style="clip-path:url(#SVGID_00000149352501863380434030000006322201844042244500_);fill:url(#SVGID_00000174574065062212140880000015320280106248439962_);" width="2680.24" height="836.54"/>
			</g>
		</g>
	</g>
</g>
</svg>
